<?xml version="1.0" encoding="UTF-8" standalone="no"?>
<svg
   viewBox="0 0 640 640"
   version="1.1"
   id="svg1"
   sodipodi:docname="logo.svg"
   inkscape:version="1.4.4 (dcaf3e7d9e, 2026-05-05)"
   xmlns:inkscape="http://www.inkscape.org/namespaces/inkscape"
   xmlns:sodipodi="http://sodipodi.sourceforge.net/DTD/sodipodi-0.dtd"
   xmlns:xlink="http://www.w3.org/1999/xlink"
   xmlns="http://www.w3.org/2000/svg"
   xmlns:svg="http://www.w3.org/2000/svg">
  <defs
     id="defs1">
    <linearGradient
       id="linearGradient4"
       inkscape:collect="always">
      <stop
         style="stop-color:#004aa8;stop-opacity:1;"
         offset="0"
         id="stop4" />
      <stop
         style="stop-color:#d9af00;stop-opacity:1;"
         offset="0.50660896"
         id="stop6" />
      <stop
         style="stop-color:#004aa8;stop-opacity:1;"
         offset="1"
         id="stop5" />
    </linearGradient>
    <linearGradient
       inkscape:collect="always"
       xlink:href="#linearGradient4"
       id="linearGradient5"
       x1="126.80531"
       y1="318.8053"
       x2="512"
       y2="321.19467"
       gradientUnits="userSpaceOnUse"
       gradientTransform="matrix(1.242671,0,0,1.242671,-77.654703,-77.654702)" />
  </defs>
  <sodipodi:namedview
     id="namedview1"
     pagecolor="#ffffff"
     bordercolor="#000000"
     borderopacity="0.25"
     inkscape:showpageshadow="2"
     inkscape:pageopacity="0.0"
     inkscape:pagecheckerboard="0"
     inkscape:deskcolor="#d1d1d1"
     inkscape:zoom="0.8370388"
     inkscape:cx="376.92398"
     inkscape:cy="336.90195"
     inkscape:window-width="1670"
     inkscape:window-height="846"
     inkscape:window-x="0"
     inkscape:window-y="0"
     inkscape:window-maximized="1"
     inkscape:current-layer="svg1" />
  <!--!Font Awesome Free 7.2.0 by @fontawesome - https://fontawesome.com License - https://fontawesome.com/license/free Copyright 2026 Fonticons, Inc.-->
  <path
     d="m 518.82736,1.876237 c 21.99526,0 39.76546,17.770194 39.76546,39.76547 0,71.826383 -30.32116,130.231913 -71.32931,179.565953 -29.94837,35.91319 -66.85569,68.47117 -103.88729,98.79234 37.0316,30.44544 73.93892,62.87915 103.88729,98.79234 41.00815,49.20977 71.32931,107.73957 71.32931,179.56595 0,21.99528 -17.7702,39.76547 -39.76546,39.76547 -21.99528,0 -39.76548,-17.77019 -39.76548,-39.76547 H 160.93812 c 0,21.99528 -17.7702,39.76547 -39.76547,39.76547 -21.995274,0 -39.765472,-17.77019 -39.765472,-39.76547 0,-71.82638 30.321172,-130.23191 71.329312,-179.56595 C 182.68486,382.87915 219.59218,350.44544 256.62378,320 219.59218,289.55456 182.68486,257.12085 152.73649,221.20766 111.72835,171.87362 81.407178,113.46809 81.407178,41.641707 c 0,-21.995276 17.770198,-39.76547 39.765472,-39.76547 21.99527,0 39.76547,17.770194 39.76547,39.76547 h 318.12376 c 0,-21.995276 17.7702,-39.76547 39.76548,-39.76547 z M 433.7044,479.06188 H 206.41988 c -10.1899,13.04804 -18.76434,26.22036 -25.59902,39.76547 h 278.60682 c -6.95896,-13.54511 -15.53338,-26.71743 -25.59902,-39.76547 z m -56.54154,-59.6482 C 359.39267,403.25896 340.13127,387.35276 320,370.94951 299.86873,387.2285 280.60733,403.25896 262.83714,419.41368 Z M 206.29561,160.93812 h 227.28451 c 10.1899,-13.04804 18.76434,-26.22036 25.59902,-39.76547 H 180.69658 c 6.95896,13.54511 15.5334,26.71743 25.59903,39.76547 z m 56.54153,59.6482 c 17.77019,16.15472 37.03159,32.06092 57.16286,48.46417 20.13127,-16.27899 39.39267,-32.30945 57.16286,-48.46417 z"
     id="path1"
     style="fill:url(#linearGradient5);stroke-width:1.24268" />
</svg>
